<mxfile host="app.diagrams.net" modified="2023-12-13T16:07:15.841Z" agent="Mozilla/5.0 (Windows NT 10.0; Win64; x64) AppleWebKit/537.36 (KHTML, like Gecko) Chrome/118.0.5993.732 YaBrowser/23.11.1.732 Yowser/2.5 Safari/537.36" etag="HaOWHaLAUxOF571a1Olq" version="22.1.8" type="github">
  <diagram name="Страница — 1" id="yby_Cb1ldXEhW4t7scRq">
    <mxGraphModel dx="1386" dy="783" grid="1" gridSize="10" guides="1" tooltips="1" connect="1" arrows="1" fold="1" page="1" pageScale="1" pageWidth="827" pageHeight="1169" math="0" shadow="0">
      <root>
        <mxCell id="0" />
        <mxCell id="1" parent="0" />
        <mxCell id="FgHNt3G3QbwC-B-KgTd8-9" value="&lt;p align=&quot;center&quot; class=&quot;MsoNormal&quot;&gt;&lt;br&gt;&lt;/p&gt;" style="shape=dataStorage;whiteSpace=wrap;html=1;fixedSize=1;" parent="1" vertex="1">
          <mxGeometry x="610" y="79" width="120" height="90" as="geometry" />
        </mxCell>
        <mxCell id="FgHNt3G3QbwC-B-KgTd8-8" value="&lt;p align=&quot;center&quot; class=&quot;MsoNormal&quot;&gt;&lt;br&gt;&lt;/p&gt;" style="shape=dataStorage;whiteSpace=wrap;html=1;fixedSize=1;" parent="1" vertex="1">
          <mxGeometry x="590" y="89" width="120" height="90" as="geometry" />
        </mxCell>
        <mxCell id="FgHNt3G3QbwC-B-KgTd8-5" value="&lt;p align=&quot;center&quot; class=&quot;MsoNormal&quot;&gt;&lt;b&gt;Avalanche &lt;/b&gt;&lt;/p&gt;&lt;p align=&quot;center&quot; class=&quot;MsoNormal&quot;&gt;&lt;b&gt;&lt;span lang=&quot;EN-US&quot;&gt;C-chain&lt;/span&gt;&lt;/b&gt;&lt;/p&gt;" style="shape=dataStorage;whiteSpace=wrap;html=1;fixedSize=1;" parent="1" vertex="1">
          <mxGeometry x="570" y="99" width="120" height="90" as="geometry" />
        </mxCell>
        <mxCell id="FgHNt3G3QbwC-B-KgTd8-6" value="&lt;p align=&quot;center&quot; class=&quot;MsoNormal&quot;&gt;&lt;b&gt;Смарт-контракт&lt;/b&gt;&lt;/p&gt;" style="rounded=0;whiteSpace=wrap;html=1;" parent="1" vertex="1">
          <mxGeometry x="240" y="99" width="350" height="30" as="geometry" />
        </mxCell>
        <mxCell id="FgHNt3G3QbwC-B-KgTd8-12" value="&lt;p align=&quot;center&quot; class=&quot;MsoNormal&quot;&gt;&lt;b&gt;Avalanche &lt;/b&gt;&lt;/p&gt;&lt;p align=&quot;center&quot; class=&quot;MsoNormal&quot;&gt;&lt;b&gt;&lt;span lang=&quot;EN-US&quot;&gt;Node&lt;/span&gt;&lt;/b&gt;&lt;/p&gt;" style="shape=dataStorage;whiteSpace=wrap;html=1;fixedSize=1;" parent="1" vertex="1">
          <mxGeometry x="570" y="340" width="120" height="90" as="geometry" />
        </mxCell>
        <mxCell id="FgHNt3G3QbwC-B-KgTd8-13" value="&lt;p align=&quot;center&quot; class=&quot;MsoNormal&quot;&gt;&lt;b&gt;JSON-RPC сервер&lt;/b&gt;&lt;/p&gt;" style="rounded=0;whiteSpace=wrap;html=1;" parent="1" vertex="1">
          <mxGeometry x="411" y="390" width="179" height="30" as="geometry" />
        </mxCell>
        <mxCell id="FgHNt3G3QbwC-B-KgTd8-14" value="&lt;p align=&quot;center&quot; class=&quot;MsoNormal&quot;&gt;&lt;b&gt;REST API сервер&lt;/b&gt;&lt;/p&gt;" style="rounded=0;whiteSpace=wrap;html=1;" parent="1" vertex="1">
          <mxGeometry x="411" y="582" width="179" height="30" as="geometry" />
        </mxCell>
        <mxCell id="FgHNt3G3QbwC-B-KgTd8-18" value="&lt;p align=&quot;center&quot; class=&quot;MsoNormal&quot;&gt;&lt;br&gt;&lt;/p&gt;" style="rounded=0;whiteSpace=wrap;html=1;" parent="1" vertex="1">
          <mxGeometry x="366.5" y="691.5" width="140" height="90" as="geometry" />
        </mxCell>
        <mxCell id="FgHNt3G3QbwC-B-KgTd8-19" value="&lt;p align=&quot;center&quot; class=&quot;MsoNormal&quot;&gt;&lt;br&gt;&lt;/p&gt;" style="rounded=0;whiteSpace=wrap;html=1;" parent="1" vertex="1">
          <mxGeometry x="353.5" y="701.5" width="140" height="90" as="geometry" />
        </mxCell>
        <mxCell id="FgHNt3G3QbwC-B-KgTd8-20" value="&lt;p align=&quot;center&quot; class=&quot;MsoNormal&quot;&gt;&lt;b&gt;Различные UI&lt;/b&gt;&lt;/p&gt;" style="rounded=0;whiteSpace=wrap;html=1;" parent="1" vertex="1">
          <mxGeometry x="339.5" y="711.5" width="140" height="90" as="geometry" />
        </mxCell>
        <mxCell id="FgHNt3G3QbwC-B-KgTd8-23" value="" style="endArrow=classic;startArrow=classic;html=1;rounded=0;exitX=0.5;exitY=0;exitDx=0;exitDy=0;entryX=0.397;entryY=0.967;entryDx=0;entryDy=0;entryPerimeter=0;" parent="1" edge="1">
          <mxGeometry width="50" height="50" relative="1" as="geometry">
            <mxPoint x="455.21" y="711.5" as="sourcePoint" />
            <mxPoint x="455.228" y="611.01" as="targetPoint" />
          </mxGeometry>
        </mxCell>
        <mxCell id="FgHNt3G3QbwC-B-KgTd8-24" value="" style="endArrow=classic;startArrow=classic;html=1;rounded=0;entryX=0.5;entryY=1;entryDx=0;entryDy=0;exitX=0.5;exitY=0;exitDx=0;exitDy=0;" parent="1" source="FgHNt3G3QbwC-B-KgTd8-14" target="FgHNt3G3QbwC-B-KgTd8-13" edge="1">
          <mxGeometry width="50" height="50" relative="1" as="geometry">
            <mxPoint x="493" y="500" as="sourcePoint" />
            <mxPoint x="492.5" y="420" as="targetPoint" />
          </mxGeometry>
        </mxCell>
        <mxCell id="FgHNt3G3QbwC-B-KgTd8-25" value="" style="endArrow=classic;startArrow=classic;html=1;rounded=0;entryX=0.397;entryY=0.967;entryDx=0;entryDy=0;entryPerimeter=0;exitX=0.583;exitY=0.011;exitDx=0;exitDy=0;exitPerimeter=0;" parent="1" source="FgHNt3G3QbwC-B-KgTd8-12" edge="1">
          <mxGeometry width="50" height="50" relative="1" as="geometry">
            <mxPoint x="640.5" y="269" as="sourcePoint" />
            <mxPoint x="640" y="189" as="targetPoint" />
          </mxGeometry>
        </mxCell>
        <mxCell id="FgHNt3G3QbwC-B-KgTd8-26" value="&lt;p align=&quot;center&quot; class=&quot;MsoNormal&quot;&gt;&lt;b&gt;Сервис комплаенса &lt;/b&gt;&lt;b&gt;&lt;span style=&quot;font-size:10.0pt;line-height:107%;mso-ansi-language:EN-US&quot; lang=&quot;EN-US&quot;&gt;KYC/AML&lt;/span&gt;&lt;/b&gt;&lt;/p&gt;" style="rounded=0;whiteSpace=wrap;html=1;" parent="1" vertex="1">
          <mxGeometry x="110" y="585" width="261" height="30" as="geometry" />
        </mxCell>
        <mxCell id="FgHNt3G3QbwC-B-KgTd8-27" value="" style="endArrow=classic;startArrow=classic;html=1;rounded=0;exitX=0.909;exitY=-0.033;exitDx=0;exitDy=0;exitPerimeter=0;entryX=0.308;entryY=1.022;entryDx=0;entryDy=0;entryPerimeter=0;" parent="1" source="FgHNt3G3QbwC-B-KgTd8-26" target="FgHNt3G3QbwC-B-KgTd8-6" edge="1">
          <mxGeometry width="50" height="50" relative="1" as="geometry">
            <mxPoint x="351" y="270" as="sourcePoint" />
            <mxPoint x="350" y="140" as="targetPoint" />
          </mxGeometry>
        </mxCell>
        <mxCell id="FgHNt3G3QbwC-B-KgTd8-28" value="&lt;p align=&quot;center&quot; class=&quot;MsoNormal&quot;&gt;&lt;b&gt;dApp&lt;/b&gt;&lt;/p&gt;" style="rounded=0;whiteSpace=wrap;html=1;" parent="1" vertex="1">
          <mxGeometry x="371" y="159" width="219" height="30" as="geometry" />
        </mxCell>
        <mxCell id="FgHNt3G3QbwC-B-KgTd8-29" value="" style="endArrow=classic;startArrow=classic;html=1;rounded=0;exitX=0.25;exitY=0;exitDx=0;exitDy=0;" parent="1" source="FgHNt3G3QbwC-B-KgTd8-19" edge="1">
          <mxGeometry width="50" height="50" relative="1" as="geometry">
            <mxPoint x="391" y="428" as="sourcePoint" />
            <mxPoint x="391" y="190" as="targetPoint" />
          </mxGeometry>
        </mxCell>
        <mxCell id="FgHNt3G3QbwC-B-KgTd8-30" value="&lt;p align=&quot;center&quot; class=&quot;MsoNormal&quot;&gt;&lt;b&gt;DEX/CEX&lt;/b&gt;&lt;/p&gt;" style="rounded=0;whiteSpace=wrap;html=1;" parent="1" vertex="1">
          <mxGeometry x="110" y="200" width="160" height="30" as="geometry" />
        </mxCell>
        <mxCell id="FgHNt3G3QbwC-B-KgTd8-32" value="" style="endArrow=classic;startArrow=classic;html=1;rounded=0;exitX=0.903;exitY=0.023;exitDx=0;exitDy=0;entryX=0.144;entryY=0.999;entryDx=0;entryDy=0;entryPerimeter=0;exitPerimeter=0;" parent="1" edge="1">
          <mxGeometry width="50" height="50" relative="1" as="geometry">
            <mxPoint x="284.5999999999999" y="280.69000000000005" as="sourcePoint" />
            <mxPoint x="284.4000000000001" y="128.97000000000003" as="targetPoint" />
          </mxGeometry>
        </mxCell>
        <mxCell id="FgHNt3G3QbwC-B-KgTd8-33" value="&lt;p align=&quot;center&quot; class=&quot;MsoNormal&quot;&gt;&lt;b&gt;Аудитор&lt;/b&gt;&lt;/p&gt;" style="rounded=0;whiteSpace=wrap;html=1;" parent="1" vertex="1">
          <mxGeometry x="110" y="280" width="190" height="30" as="geometry" />
        </mxCell>
        <mxCell id="FgHNt3G3QbwC-B-KgTd8-34" value="" style="endArrow=classic;startArrow=classic;html=1;rounded=0;entryX=0.045;entryY=1.033;entryDx=0;entryDy=0;entryPerimeter=0;" parent="1" target="FgHNt3G3QbwC-B-KgTd8-6" edge="1">
          <mxGeometry width="50" height="50" relative="1" as="geometry">
            <mxPoint x="256" y="200" as="sourcePoint" />
            <mxPoint x="255.678" y="139" as="targetPoint" />
          </mxGeometry>
        </mxCell>
        <mxCell id="FgHNt3G3QbwC-B-KgTd8-35" value="" style="endArrow=classic;startArrow=classic;html=1;rounded=0;entryX=0.045;entryY=1.033;entryDx=0;entryDy=0;entryPerimeter=0;" parent="1" edge="1">
          <mxGeometry width="50" height="50" relative="1" as="geometry">
            <mxPoint x="390" y="160" as="sourcePoint" />
            <mxPoint x="390" y="129" as="targetPoint" />
          </mxGeometry>
        </mxCell>
        <mxCell id="9PM7yvp-q5oAq8wCGYlE-1" value="&lt;p align=&quot;center&quot; class=&quot;MsoNormal&quot;&gt;&lt;b&gt;Bridge&lt;/b&gt;&lt;/p&gt;" style="rounded=0;whiteSpace=wrap;html=1;" parent="1" vertex="1">
          <mxGeometry x="110" y="370" width="210" height="30" as="geometry" />
        </mxCell>
        <mxCell id="9PM7yvp-q5oAq8wCGYlE-2" value="" style="endArrow=classic;startArrow=classic;html=1;rounded=0;exitX=0.952;exitY=0;exitDx=0;exitDy=0;entryX=0.144;entryY=0.999;entryDx=0;entryDy=0;entryPerimeter=0;exitPerimeter=0;" parent="1" source="9PM7yvp-q5oAq8wCGYlE-1" edge="1">
          <mxGeometry width="50" height="50" relative="1" as="geometry">
            <mxPoint x="310.19999999999993" y="280.72" as="sourcePoint" />
            <mxPoint x="310.0000000000001" y="129.00000000000003" as="targetPoint" />
          </mxGeometry>
        </mxCell>
        <mxCell id="9PM7yvp-q5oAq8wCGYlE-3" value="&lt;p align=&quot;center&quot; class=&quot;MsoNormal&quot;&gt;&lt;b&gt;Другие &lt;br&gt;блокчейны&lt;/b&gt;&lt;/p&gt;" style="shape=dataStorage;whiteSpace=wrap;html=1;fixedSize=1;" parent="1" vertex="1">
          <mxGeometry x="150" y="440" width="120" height="90" as="geometry" />
        </mxCell>
        <mxCell id="9PM7yvp-q5oAq8wCGYlE-5" value="" style="endArrow=classic;startArrow=classic;html=1;rounded=0;entryX=0.045;entryY=1.033;entryDx=0;entryDy=0;entryPerimeter=0;" parent="1" edge="1">
          <mxGeometry width="50" height="50" relative="1" as="geometry">
            <mxPoint x="214.5" y="440" as="sourcePoint" />
            <mxPoint x="214.5" y="400" as="targetPoint" />
          </mxGeometry>
        </mxCell>
      </root>
    </mxGraphModel>
  </diagram>
</mxfile>
